<svg preserveAspectRatio="none" overflow="visible" style="display: block;" width="24" height="25" viewBox="0 0 24 25" fill="none" xmlns="http://www.w3.org/2000/svg">
<g id="image 37 [Vectorized]">

<path id="Subtract" d="M19.1797 11.5587C20.0333 11.5449 20.4391 12.6118 19.792 13.1837C19.2801 13.6359 18.7752 14.11 18.2617 14.5587C17.9791 14.8058 17.7168 15.0998 17.3125 15.0665C16.9178 15.0505 16.7671 14.8826 16.5039 14.6134C16.4029 14.5093 16.2948 14.407 16.1973 14.3019C15.89 13.9706 15.5708 13.7695 15.5684 13.2706C15.5659 12.7504 15.9724 12.3474 16.4863 12.3468C16.8942 12.3464 17.1191 12.6137 17.377 12.881C17.6802 12.6416 17.9686 12.3407 18.2656 12.089C18.5593 11.8401 18.7128 11.6355 19.1162 11.5617C19.1373 11.56 19.1586 11.5591 19.1797 11.5587ZM19.0977 12.0304C18.7112 12.2211 17.5388 13.5012 17.3145 13.4337C16.9936 13.3348 16.7639 12.6149 16.3057 12.841C16.1873 12.8994 16.0851 13.0043 16.0449 13.132C16.0091 13.2463 16.0177 13.3578 16.0733 13.464C16.1793 13.6667 16.4048 13.8497 16.5645 14.0109C16.9808 14.4483 17.2271 14.884 17.7861 14.3634C18.334 13.8533 18.9251 13.3672 19.4697 12.8507C19.8359 12.5169 19.6068 11.9998 19.1377 12.0275C19.1245 12.0282 19.1107 12.0293 19.0977 12.0304Z" fill="#C41143"/>
<path id="Subtract_2" d="M6.4864 1.9169C7.98291 1.91539 9.41846 2.51506 10.4737 3.58194C11.1946 4.3068 11.7066 5.21545 11.9542 6.20987C12.1713 7.10686 12.1264 7.76919 12.1261 8.67764V10.6786L12.127 17.0751C13.0269 16.9037 13.9393 16.8006 14.8546 16.7675C14.4686 16.4691 14.1443 16.0975 13.9005 15.6737C13.6702 15.2688 13.5144 14.8247 13.4405 14.3642C13.3835 14.0093 13.3944 13.5328 13.3946 13.1659L13.3966 11.5712C13.3971 11.1084 13.3698 10.6213 13.422 10.1659C13.4274 10.1198 13.4854 10.0281 13.5157 9.99112C13.633 9.8485 13.8259 9.78186 13.9981 9.73819C14.3187 9.65682 14.599 9.49614 14.8214 9.25088C14.938 9.11999 15.0298 8.96786 15.0919 8.80362C15.179 8.57761 15.2334 8.15219 15.4649 8.0419C15.5838 7.98559 15.7875 7.9639 15.9942 7.95694H17.7579L19.0675 7.95596C19.3109 7.95602 19.5738 7.96017 19.8155 7.96182C20.5315 7.96668 20.4 8.44043 20.6309 8.91104C20.8042 9.27082 21.1123 9.54711 21.4874 9.6796C21.8869 9.82227 22.2862 9.83582 22.2823 10.3876C22.2776 10.9838 22.2956 11.5916 22.2813 12.1864C22.266 12.8288 22.3233 13.5615 22.2579 14.1942C22.2201 14.532 22.1379 14.8634 22.0137 15.1796C21.7044 15.9574 20.9896 16.8189 20.2208 17.1513C20.4118 17.2218 20.6328 17.2647 20.8302 17.3241C21.4852 17.5212 22.1604 17.7492 22.6573 18.2401C22.8358 18.4375 22.9446 18.6485 22.9503 18.9208C22.9605 19.4305 22.9501 19.942 22.9503 20.4521C22.9505 20.9317 22.9626 21.4145 22.9464 21.8935C22.9428 21.9952 22.899 22.1859 22.8497 22.2733C22.5101 22.8755 21.5968 23.2219 20.9884 23.411C20.1905 23.659 19.1306 23.8428 18.3175 23.9296C16.0179 24.1745 11.935 24.0852 9.89656 22.9989C9.08132 23.6812 7.98057 24.0528 6.92976 24.1493C3.8848 24.44 1.07603 22.0558 0.857498 18.9892C0.799466 18.1744 0.835015 17.2843 0.835037 16.4599V12.0087L0.83406 8.83877C0.833386 8.22171 0.805544 7.18479 0.913162 6.60635C1.09485 5.59415 1.54416 4.64944 2.21394 3.87198C3.25921 2.66654 4.59943 2.03549 6.1739 1.92764C6.23812 1.91864 6.4183 1.91717 6.4864 1.9169ZM1.29793 16.8866C1.29776 17.6282 1.25162 18.5707 1.35164 19.287C1.70328 21.8042 3.97819 23.7608 6.50984 23.7001C7.72476 23.6709 8.48539 23.4021 9.48543 22.7431C8.97569 22.3734 8.94785 22.0943 8.95418 21.5126L8.95222 19.8046C8.95035 19.2427 8.84064 18.6067 9.29597 18.1962C9.93948 17.6163 10.8429 17.3752 11.6622 17.1698C11.6489 16.0376 11.6588 14.8856 11.6593 13.7519L1.2989 13.7509L1.29793 16.8866ZM22.4796 19.7353C20.9711 21.0126 16.2726 21.2163 14.2764 21.0282C12.6878 20.8784 10.764 20.6735 9.42488 19.7577L9.41707 21.1503C9.41567 21.4612 9.34851 22.0485 9.60554 22.2548C10.5992 23.0522 12.2869 23.3192 13.5284 23.4608C15.0869 23.6387 16.836 23.6119 18.3907 23.4579C19.3927 23.3586 21.6051 22.9627 22.297 22.2538C22.3286 22.221 22.36 22.1878 22.3897 22.1532C22.5301 21.9333 22.4869 21.3962 22.4864 21.1239C22.4875 20.6611 22.4852 20.1981 22.4796 19.7353ZM11.4151 17.7206C10.8842 17.8395 9.78666 18.2111 9.47664 18.6952C9.4206 18.7824 9.40276 18.8894 9.42683 18.9901C9.67264 20.0617 13.5254 20.548 14.4845 20.5839C15.1964 20.6105 16.0933 20.6292 16.8165 20.6093C17.1203 20.5986 17.3843 20.587 17.6866 20.5624C18.0442 20.5334 18.4911 20.4557 18.8399 20.4501C18.4657 20.2902 18.03 20.1392 17.6456 19.997L15.6671 19.2646L12.9239 18.2489C12.7152 18.1716 11.5246 17.7086 11.4151 17.7206ZM15.1251 17.2177C14.1793 17.2683 13.1986 17.3295 12.2657 17.5146C12.599 17.6219 12.9655 17.7701 13.2979 17.8935L15.1866 18.5927C16.6909 19.1492 18.2664 19.7091 19.7579 20.289C20.0109 20.2341 20.3032 20.1703 20.5528 20.1015C23.7034 19.1879 22.5678 18.2081 20.1202 17.6171C19.9692 17.5807 19.8027 17.5643 19.6553 17.5282C19.1099 17.8374 18.5283 18.2708 17.962 18.5331C17.7491 18.6311 17.3282 18.3383 17.1573 18.2314C16.6001 17.9047 16.0615 17.5046 15.4845 17.2177C15.4409 17.1972 15.1877 17.2143 15.1251 17.2177ZM18.5128 8.42081C17.5912 8.42079 16.6168 8.40564 15.6993 8.42667C15.6237 8.54858 15.6004 8.7995 15.5401 8.94522C15.2666 9.60391 14.7757 10.0083 14.0977 10.1991C14.0219 10.221 13.9453 10.2409 13.8682 10.2577C13.8364 10.8615 13.8581 11.6599 13.8604 12.2851C13.8658 13.7015 13.6763 14.8574 14.7012 15.997C15.2235 16.5775 15.9734 16.9266 16.629 17.3534C16.9883 17.5874 17.4622 17.8863 17.8282 18.0966C17.9984 18.0156 18.2099 17.874 18.3731 17.7724L19.1934 17.2626C20.4222 16.5037 21.3618 16.0641 21.7364 14.5146C21.8357 14.1042 21.8173 13.6787 21.8175 13.2558V12.1308C21.8171 11.5509 21.8388 10.8247 21.8096 10.2587C21.1815 10.1196 20.6787 9.86595 20.3223 9.30655C20.2192 9.14573 20.1406 8.96999 20.088 8.78604C20.0608 8.69306 20.0225 8.47635 19.9425 8.43448C19.7918 8.41282 19.5434 8.42061 19.3839 8.42081H18.5128ZM6.53328 2.38858C6.43234 2.38876 6.27533 2.38804 6.17683 2.39932C5.95469 2.41407 5.71378 2.4274 5.49617 2.47061C4.36034 2.6964 3.34193 3.28382 2.58015 4.15616C1.98515 4.84039 1.57582 5.66826 1.39363 6.5585C1.30003 6.99879 1.29924 7.63957 1.2989 8.09366V9.43252C1.29956 10.7056 1.28355 12.0121 1.30086 13.2821L6.80183 13.2841C8.4124 13.2839 10.0501 13.2997 11.6583 13.2821L11.6593 9.62198L11.6602 8.14444C11.6604 7.7578 11.6728 7.29968 11.6221 6.92276C11.4679 5.77488 10.9396 4.70588 10.127 3.89053C9.1741 2.93131 7.88171 2.39094 6.53328 2.38858Z" fill="#C41143"/>
</g>
</svg>
